<svg id="Build_Layer" data-name="Build Layer" xmlns="http://www.w3.org/2000/svg" viewBox="0 0 44 44"><defs><style>.cls-1{fill:#a6e5ff;}.cls-2{fill:#0d4599;}.cls-3{fill:#f2a619;}</style></defs><title>Artboard 163 copy 14</title><path class="cls-1" d="M19.6,4a1.573,1.573,0,0,0-1.019.358L4.7,17.549a3.335,3.335,0,0,0-1.019,2.226V40.643A1.342,1.342,0,0,0,5.005,42H34.189a1.342,1.342,0,0,0,1.327-1.357V19.775A3.335,3.335,0,0,0,34.5,17.549L20.616,4.358A1.573,1.573,0,0,0,19.6,4Z"/><path class="cls-2" d="M24.571,4.932,37.262,16.72l.051.047,0,0a.952.952,0,0,1,.112.237V35.429H11.714V17.008a.952.952,0,0,1,.112-.237l0,0,.051-.047L24.571,4.932m0-2.932a1.545,1.545,0,0,0-.987.339l-13.453,12.5a3.124,3.124,0,0,0-.988,2.109V36.714A1.286,1.286,0,0,0,10.429,38H38.714A1.286,1.286,0,0,0,40,36.714V16.945a3.124,3.124,0,0,0-.988-2.109L25.559,2.339A1.548,1.548,0,0,0,24.571,2Z"/><path class="cls-3" d="M23.15,30.253A1.823,1.823,0,1,1,24.964,32,1.767,1.767,0,0,1,23.15,30.253Z"/><path class="cls-3" d="M28.3,23.8c-1.394.8-1.828,1.286-1.909,2.221v.013A1.348,1.348,0,0,1,24.9,27.166a1.333,1.333,0,0,1-1.5-1.326V25.7a3.327,3.327,0,0,1,2.031-3.1c1.435-.84,1.868-1.368,1.868-2.383s-.853-1.733-2.1-1.733A2.124,2.124,0,0,0,23,20.126a1.382,1.382,0,0,1-1.435.934,1.248,1.248,0,0,1-1.395-1.34,2.821,2.821,0,0,1,.109-.745c.447-1.611,2.342-3.087,5.1-3.087,3.182,0,5.294,1.733,5.294,4.238A4.049,4.049,0,0,1,28.3,23.8Z"/></svg>